<?xml version="1.0" encoding="UTF-8" standalone="no"?><svg xmlns="http://www.w3.org/2000/svg" xmlns:xlink="http://www.w3.org/1999/xlink" contentScriptType="application/ecmascript" contentStyleType="text/css" height="744px" preserveAspectRatio="none" style="width:455px;height:744px;" version="1.1" viewBox="0 0 455 744" width="455px" zoomAndPan="magnify"><defs><filter height="300%" id="foipe7b4dodhz" width="300%" x="-1" y="-1"><feGaussianBlur result="blurOut" stdDeviation="2.0"/><feColorMatrix in="blurOut" result="blurOut2" type="matrix" values="0 0 0 0 0 0 0 0 0 0 0 0 0 0 0 0 0 0 .4 0"/><feOffset dx="4.0" dy="4.0" in="blurOut2" result="blurOut3"/><feBlend in="SourceGraphic" in2="blurOut3" mode="normal"/></filter></defs><g><!--cluster Client--><polygon fill="#FFFFFF" filter="url(#foipe7b4dodhz)" points="14,335,65,335,72,357.2969,233,357.2969,233,620,14,620,14,335" style="stroke: #000000; stroke-width: 1.5;"/><line style="stroke: #000000; stroke-width: 1.5;" x1="14" x2="72" y1="357.2969" y2="357.2969"/><text fill="#000000" font-family="sans-serif" font-size="14" font-weight="bold" lengthAdjust="spacingAndGlyphs" textLength="45" x="18" y="349.9951">Client</text><!--cluster Server--><polygon fill="#FFFFFF" filter="url(#foipe7b4dodhz)" points="241,16,300,16,307,38.2969,433,38.2969,433,620,241,620,241,16" style="stroke: #000000; stroke-width: 1.5;"/><line style="stroke: #000000; stroke-width: 1.5;" x1="241" x2="307" y1="38.2969" y2="38.2969"/><text fill="#000000" font-family="sans-serif" font-size="14" font-weight="bold" lengthAdjust="spacingAndGlyphs" textLength="53" x="245" y="30.9951">Server</text><!--entity Game--><rect fill="#FEFECE" filter="url(#foipe7b4dodhz)" height="36.2969" style="stroke: #A80036; stroke-width: 1.5;" width="61" x="82.5" y="362"/><rect fill="#FEFECE" height="5" style="stroke: #A80036; stroke-width: 1.5;" width="10" x="77.5" y="367"/><rect fill="#FEFECE" height="5" style="stroke: #A80036; stroke-width: 1.5;" width="10" x="77.5" y="388.2969"/><text fill="#000000" font-family="sans-serif" font-size="14" lengthAdjust="spacingAndGlyphs" textLength="41" x="92.5" y="384.9951">Game</text><!--entity Logger--><ellipse cx="54" cy="487" fill="#FEFECE" filter="url(#foipe7b4dodhz)" rx="8" ry="8" style="stroke: #A80036; stroke-width: 2.0;"/><text fill="#000000" font-family="sans-serif" font-size="14" lengthAdjust="spacingAndGlyphs" textLength="48" x="30" y="516.9951">Logger</text><!--entity LoggerSetup--><ellipse cx="173" cy="487" fill="#FEFECE" filter="url(#foipe7b4dodhz)" rx="8" ry="8" style="stroke: #A80036; stroke-width: 2.0;"/><text fill="#000000" font-family="sans-serif" font-size="14" lengthAdjust="spacingAndGlyphs" textLength="89" x="128.5" y="516.9951">LoggerSetup</text><!--entity LoggerComponent--><rect fill="#FEFECE" filter="url(#foipe7b4dodhz)" height="36.2969" style="stroke: #A80036; stroke-width: 1.5;" width="150" x="75" y="576"/><rect fill="#FEFECE" height="5" style="stroke: #A80036; stroke-width: 1.5;" width="10" x="70" y="581"/><rect fill="#FEFECE" height="5" style="stroke: #A80036; stroke-width: 1.5;" width="10" x="70" y="602.2969"/><text fill="#000000" font-family="sans-serif" font-size="14" lengthAdjust="spacingAndGlyphs" textLength="130" x="85" y="598.9951">LoggerComponent</text><!--entity Storage--><path d="M300,53 C300,43 337,43 337,43 C337,43 374,43 374,53 L374,78.2969 C374,88.2969 337,88.2969 337,88.2969 C337,88.2969 300,88.2969 300,78.2969 L300,53 " fill="#FEFECE" filter="url(#foipe7b4dodhz)" style="stroke: #000000; stroke-width: 1.5;"/><path d="M300,53 C300,63 337,63 337,63 C337,63 374,63 374,53 " fill="none" style="stroke: #000000; stroke-width: 1.5;"/><text fill="#000000" font-family="sans-serif" font-size="14" lengthAdjust="spacingAndGlyphs" textLength="54" x="310" y="79.9951">Storage</text><!--entity LoggerServer--><rect fill="#FEFECE" filter="url(#foipe7b4dodhz)" height="36.2969" style="stroke: #A80036; stroke-width: 1.5;" width="112" x="270" y="576"/><rect fill="#FEFECE" height="5" style="stroke: #A80036; stroke-width: 1.5;" width="10" x="265" y="581"/><rect fill="#FEFECE" height="5" style="stroke: #A80036; stroke-width: 1.5;" width="10" x="265" y="602.2969"/><text fill="#000000" font-family="sans-serif" font-size="14" lengthAdjust="spacingAndGlyphs" textLength="92" x="280" y="598.9951">LoggerServer</text><!--entity LogPersistor--><ellipse cx="331" cy="487" fill="#FEFECE" filter="url(#foipe7b4dodhz)" rx="8" ry="8" style="stroke: #A80036; stroke-width: 2.0;"/><text fill="#000000" font-family="sans-serif" font-size="14" lengthAdjust="spacingAndGlyphs" textLength="86" x="288" y="516.9951">LogPersistor</text><!--entity StringPersistorAdapter--><rect fill="#FEFECE" filter="url(#foipe7b4dodhz)" height="36.2969" style="stroke: #A80036; stroke-width: 1.5;" width="175" x="249.5" y="362"/><rect fill="#FEFECE" height="5" style="stroke: #A80036; stroke-width: 1.5;" width="10" x="244.5" y="367"/><rect fill="#FEFECE" height="5" style="stroke: #A80036; stroke-width: 1.5;" width="10" x="244.5" y="388.2969"/><text fill="#000000" font-family="sans-serif" font-size="14" lengthAdjust="spacingAndGlyphs" textLength="155" x="259.5" y="384.9951">StringPersistorAdapter</text><!--entity StringPersistor--><ellipse cx="337" cy="273" fill="#FEFECE" filter="url(#foipe7b4dodhz)" rx="8" ry="8" style="stroke: #A80036; stroke-width: 2.0;"/><text fill="#000000" font-family="sans-serif" font-size="14" lengthAdjust="spacingAndGlyphs" textLength="101" x="286.5" y="302.9951">StringPersistor</text><!--entity StringPersistorFile--><rect fill="#FEFECE" filter="url(#foipe7b4dodhz)" height="36.2969" style="stroke: #A80036; stroke-width: 1.5;" width="144" x="265" y="148"/><rect fill="#FEFECE" height="5" style="stroke: #A80036; stroke-width: 1.5;" width="10" x="260" y="153"/><rect fill="#FEFECE" height="5" style="stroke: #A80036; stroke-width: 1.5;" width="10" x="260" y="174.2969"/><text fill="#000000" font-family="sans-serif" font-size="14" lengthAdjust="spacingAndGlyphs" textLength="124" x="275" y="170.9951">StringPersistorFile</text><!--entity TCP--><ellipse cx="238" cy="701" fill="#FEFECE" filter="url(#foipe7b4dodhz)" rx="8" ry="8" style="stroke: #A80036; stroke-width: 2.0;"/><text fill="#000000" font-family="sans-serif" font-size="14" lengthAdjust="spacingAndGlyphs" textLength="28" x="224" y="730.9951">TCP</text><!--link Game to Logger--><path d="M102.9915,398.1511 C91.2318,419.4779 71.9925,454.3696 61.4635,473.4644 " fill="none" id="Game-Logger" style="stroke: #A80036; stroke-width: 1.0;"/><polygon fill="#A80036" points="58.9842,477.9608,66.8329,472.0112,61.3986,473.5824,59.8274,468.1481,58.9842,477.9608" style="stroke: #A80036; stroke-width: 1.0;"/><!--link Game to LoggerSetup--><path d="M123.1782,398.1511 C135.1371,419.4779 154.7026,454.3696 165.41,473.4644 " fill="none" id="Game-LoggerSetup" style="stroke: #A80036; stroke-width: 1.0;"/><polygon fill="#A80036" points="167.9313,477.9608,167.0182,468.1544,165.4857,473.5997,160.0404,472.0672,167.9313,477.9608" style="stroke: #A80036; stroke-width: 1.0;"/><!--link Logger to LoggerComponent--><path d="M62.1849,496.1228 C77.1013,512.7483 109.1021,548.4159 130.0754,571.7924 " fill="none" id="Logger-LoggerComponent" style="stroke: #A80036; stroke-width: 1.0;"/><polygon fill="#A80036" points="133.5993,575.72,130.5665,566.3497,130.2603,571.9983,124.6117,571.6921,133.5993,575.72" style="stroke: #A80036; stroke-width: 1.0;"/><!--link LoggerSetup to LoggerComponent--><path d="M171.039,496.1228 C167.5244,512.4735 160.0508,547.242 155.0249,570.6233 " fill="none" id="LoggerSetup-LoggerComponent" style="stroke: #A80036; stroke-width: 1.0;"/><polygon fill="#A80036" points="153.9293,575.72,159.7315,567.7617,154.9802,570.8317,151.9102,566.0803,153.9293,575.72" style="stroke: #A80036; stroke-width: 1.0;"/><!--link LoggerComponent to TCP--><path d="M164.928,612.1511 C182.6165,633.6586 211.6509,668.9619 227.2644,687.9465 " fill="none" id="LoggerComponent-TCP" style="stroke: #A80036; stroke-width: 1.0;"/><polygon fill="#A80036" points="230.5659,691.9608,227.9385,682.4689,227.3899,688.0991,221.7597,687.5505,230.5659,691.9608" style="stroke: #A80036; stroke-width: 1.0;"/><!--link LoggerServer to TCP--><path d="M307.8378,616.0836 C288.5819,639.497 259.1017,675.3422 245.4341,691.9608 " fill="none" id="LoggerServer-TCP" style="stroke: #A80036; stroke-width: 1.0;"/><polygon fill="#A80036" points="311.072,612.1511,302.2658,616.5614,307.896,616.0128,308.4445,621.643,311.072,612.1511" style="stroke: #A80036; stroke-width: 1.0;"/><!--link LogPersistor to LoggerServer--><path d="M330.3177,501.6005 C329.4175,520.8644 327.833,554.7734 326.8542,575.72 " fill="none" id="LogPersistor-LoggerServer" style="stroke: #A80036; stroke-width: 1.0;"/><polygon fill="#A80036" points="330.5737,496.1228,326.1579,504.9262,330.3403,501.1173,334.1492,505.2997,330.5737,496.1228" style="stroke: #A80036; stroke-width: 1.0;"/><!--link StringPersistorAdapter to LogPersistor--><path d="M335.696,403.2547 C334.3826,426.6767 332.4233,461.6169 331.5069,477.9608 " fill="none" id="StringPersistorAdapter-LogPersistor" style="stroke: #A80036; stroke-width: 1.0;"/><polygon fill="#A80036" points="335.9822,398.1511,331.4842,406.9128,335.7021,403.1432,339.4717,407.3611,335.9822,398.1511" style="stroke: #A80036; stroke-width: 1.0;"/><!--link StringPersistor to StringPersistorAdapter--><path d="M337,287.6005 C337,306.8644 337,340.7734 337,361.72 " fill="none" id="StringPersistor-StringPersistorAdapter" style="stroke: #A80036; stroke-width: 1.0;"/><polygon fill="#A80036" points="337,282.1228,333,291.1228,337,287.1228,341,291.1228,337,282.1228" style="stroke: #A80036; stroke-width: 1.0;"/><!--link StringPersistorFile to StringPersistor--><path d="M337,189.2547 C337,212.6767 337,247.6169 337,263.9608 " fill="none" id="StringPersistorFile-StringPersistor" style="stroke: #A80036; stroke-width: 1.0;"/><polygon fill="#A80036" points="337,184.1511,333,193.1511,337,189.1511,341,193.1511,337,184.1511" style="stroke: #A80036; stroke-width: 1.0;"/><!--link Storage to StringPersistorFile--><path d="M337,93.3029 C337,110.7246 337,132.6772 337,147.8766 " fill="none" id="Storage-StringPersistorFile" style="stroke: #A80036; stroke-width: 1.0;"/><polygon fill="#A80036" points="337,88.0542,333,97.0542,337,93.0542,341,97.0542,337,88.0542" style="stroke: #A80036; stroke-width: 1.0;"/><!--
@startuml

interface TCP

package Client {
    [Game] - -> Logger
    [Game] - -> LoggerSetup
    Logger - -> [LoggerComponent]
    LoggerSetup - -> [LoggerComponent]
    [LoggerComponent] - -> TCP
}

package Server {
    database Storage
    [LoggerServer] <- - TCP
    LogPersistor <- - [LoggerServer]
    [StringPersistorAdapter] <- - LogPersistor
    StringPersistor <- - [StringPersistorAdapter]
    [StringPersistorFile] <- - StringPersistor
    Storage <- - [StringPersistorFile]
}

@enduml

PlantUML version 1.2018.03(Thu Apr 05 18:59:15 CEST 2018)
(GPL source distribution)
Java Runtime: OpenJDK Runtime Environment
JVM: OpenJDK 64-Bit Server VM
Java Version: 1.8.0_162-b12
Operating System: Linux
OS Version: 4.15.15-1-ARCH
Default Encoding: UTF-8
Language: en
Country: US
--></g></svg>